<svg width="18" height="18" viewBox="0 0 18 18" fill="none" xmlns="http://www.w3.org/2000/svg">
<path d="M8.16699 11.5H9.83366V13.1667H8.16699V11.5ZM8.16699 4.83334H9.83366V9.83334H8.16699V4.83334ZM9.00033 0.666672C4.39199 0.666672 0.666992 4.41667 0.666992 9.00001C0.666992 11.2101 1.54497 13.3298 3.10777 14.8926C3.88159 15.6664 4.80025 16.2802 5.8113 16.699C6.82234 17.1178 7.90598 17.3333 9.00033 17.3333C11.2105 17.3333 13.3301 16.4554 14.8929 14.8926C16.4557 13.3298 17.3337 11.2101 17.3337 9.00001C17.3337 7.90566 17.1181 6.82202 16.6993 5.81098C16.2805 4.79993 15.6667 3.88127 14.8929 3.10745C14.1191 2.33363 13.2004 1.7198 12.1894 1.30101C11.1783 0.88222 10.0947 0.666672 9.00033 0.666672ZM9.00033 15.6667C7.23222 15.6667 5.53652 14.9643 4.28628 13.7141C3.03604 12.4638 2.33366 10.7681 2.33366 9.00001C2.33366 7.2319 3.03604 5.5362 4.28628 4.28596C5.53652 3.03572 7.23222 2.33334 9.00033 2.33334C10.7684 2.33334 12.4641 3.03572 13.7144 4.28596C14.9646 5.5362 15.667 7.2319 15.667 9.00001C15.667 10.7681 14.9646 12.4638 13.7144 13.7141C12.4641 14.9643 10.7684 15.6667 9.00033 15.6667Z" fill="currentColor"/>
</svg>
