<svg width="22" height="21" viewBox="0 0 22 21" fill="none" xmlns="http://www.w3.org/2000/svg">
<path d="M12.53 0.449219L11.45 1.52922L13.05 3.12922C13.27 3.37922 13.38 3.66922 13.38 3.99922C13.38 4.32922 13.27 4.63922 13.05 4.85922L9.5 8.46922L10.5 9.54922L14.13 5.93922C14.66 5.34922 14.92 4.69922 14.92 3.99922C14.92 3.29922 14.66 2.63922 14.13 2.04922L12.53 0.449219ZM8.55 2.46922L7.47 3.54922L8.08 4.10922C8.3 4.32922 8.41 4.62922 8.41 4.99922C8.41 5.36922 8.3 5.66922 8.08 5.88922L7.47 6.44922L8.55 7.52922L9.11 6.91922C9.64 6.32922 9.91 5.68922 9.91 4.99922C9.91 4.27922 9.64 3.62922 9.11 3.02922L8.55 2.46922ZM19 4.05922C18.31 4.05922 17.67 4.32922 17.08 4.85922L11.45 10.4992L12.53 11.4992L18.11 5.93922C18.36 5.68922 18.66 5.55922 19 5.55922C19.34 5.55922 19.64 5.68922 19.89 5.93922L20.5 6.54922L21.53 5.46922L20.97 4.85922C20.38 4.32922 19.72 4.05922 19 4.05922ZM5 6.99922L0 20.9992L14 15.9992L5 6.99922ZM17 10.0592C16.3 10.0592 15.66 10.3292 15.06 10.8592L13.47 12.4492L14.55 13.5292L16.14 11.9392C16.39 11.6892 16.67 11.5592 17 11.5592C17.33 11.5592 17.63 11.6892 17.88 11.9392L19.5 13.5292L20.55 12.4992L18.95 10.8592C18.36 10.3292 17.7 10.0592 17 10.0592Z" fill="currentColor"/>
</svg>
